<?xml version="1.0" encoding="utf-8"?>
<!-- Generator: Adobe Illustrator 22.0.0, SVG Export Plug-In . SVG Version: 6.00 Build 0)  -->
<svg version="1.1" id="Capa_3" xmlns="http://www.w3.org/2000/svg" xmlns:xlink="http://www.w3.org/1999/xlink" x="0px" y="0px"
	 viewBox="0 0 312.5 307.7" style="enable-background:new 0 0 312.5 307.7;" xml:space="preserve">
<style type="text/css">
	.st0{fill:#44474C;}
</style>
<g>
	<g>
		<g>
			<path class="st0" d="M227.1,89.3H85.2c-6.2,0-11.2-5-11.2-11.2v-3.8c0-6.2,5-11.2,11.2-11.2h141.9c6.2,0,11.2,5,11.2,11.2v3.8
				C238.3,84.3,233.3,89.3,227.1,89.3z M85.2,67.8c-3.6,0-6.5,2.9-6.5,6.5v3.8c0,3.6,2.9,6.5,6.5,6.5h141.9c3.6,0,6.5-2.9,6.5-6.5
				v-3.8c0-3.6-2.9-6.5-6.5-6.5H85.2z"/>
		</g>
		<g>
			<path class="st0" d="M227.1,246.9H85.2c-6.2,0-11.2-5-11.2-11.2V232c0-6.2,5-11.2,11.2-11.2h141.9c6.2,0,11.2,5,11.2,11.2v3.8
				C238.3,241.9,233.3,246.9,227.1,246.9z M85.2,225.4c-3.6,0-6.5,2.9-6.5,6.5v3.8c0,3.6,2.9,6.5,6.5,6.5h141.9
				c3.6,0,6.5-2.9,6.5-6.5V232c0-3.6-2.9-6.5-6.5-6.5H85.2z"/>
		</g>
		<g>
			<g>
				<g>
					<path class="st0" d="M236,76.5c0,1.1-0.9,2-2,2h-53.7c-1.1,0-2-0.9-2-2v-0.6c0-1.1,0.9-2,2-2H234c1.1,0,2,0.9,2,2V76.5z"/>
				</g>
			</g>
		</g>
		<g>
			<path class="st0" d="M123.5,99.5H89.2l-4-14.8h42.3L123.5,99.5z M92.8,94.8H120l1.5-5.6H91.3L92.8,94.8z"/>
		</g>
		<g>
			<path class="st0" d="M119.9,214.4H93.8l2.9-119.5H117L119.9,214.4z M98.6,209.8h16.6l-2.7-110.3h-11.3L98.6,209.8z"/>
		</g>
		<g>
			<path class="st0" d="M175.2,99.5h-34.3l-4-14.8h42.3L175.2,99.5z M144.4,94.8h27.2l1.5-5.6h-30.2L144.4,94.8z"/>
		</g>
		<g>
			<path class="st0" d="M171.5,214.4h-26.1l2.9-119.5h20.3L171.5,214.4z M150.2,209.8h16.6l-2.7-110.3h-11.3L150.2,209.8z"/>
		</g>
		<g>
			<path class="st0" d="M225.7,99.5h-34.3l-4-14.8h42.3L225.7,99.5z M194.9,94.8h27.2l1.5-5.6h-30.2L194.9,94.8z"/>
		</g>
		<g>
			<path class="st0" d="M222,214.4H196l2.9-119.5h20.3L222,214.4z M200.7,209.8h16.6l-2.7-110.3h-11.3L200.7,209.8z"/>
		</g>
		<g>
			<path class="st0" d="M229.9,225.4h-144v-15.7h144V225.4z M90.5,220.8h134.8v-6.4H90.5V220.8z"/>
		</g>
		<g>
			<g>
				<g>
					<path class="st0" d="M86,242.6c0,1.1-0.9,2-2,2h-0.6c-1.1,0-2-0.9-2-2v-6.8c0-1.1,0.9-2,2-2H84c1.1,0,2,0.9,2,2V242.6z"/>
				</g>
			</g>
		</g>
		<g>
			<g>
				<g>
					<path class="st0" d="M100.2,242.6c0,1.1-0.9,2-2,2h-0.6c-1.1,0-2-0.9-2-2v-6.8c0-1.1,0.9-2,2-2h0.6c1.1,0,2,0.9,2,2V242.6z"/>
				</g>
			</g>
		</g>
		<g>
			<g>
				<g>
					<path class="st0" d="M114.4,242.6c0,1.1-0.9,2-2,2h-0.6c-1.1,0-2-0.9-2-2v-6.8c0-1.1,0.9-2,2-2h0.6c1.1,0,2,0.9,2,2V242.6z"/>
				</g>
			</g>
		</g>
		<g>
			<g>
				<g>
					<path class="st0" d="M128.7,242.6c0,1.1-0.9,2-2,2H126c-1.1,0-2-0.9-2-2v-6.8c0-1.1,0.9-2,2-2h0.6c1.1,0,2,0.9,2,2V242.6z"/>
				</g>
			</g>
		</g>
		<g>
			<g>
				<g>
					<path class="st0" d="M142.9,242.6c0,1.1-0.9,2-2,2h-0.6c-1.1,0-2-0.9-2-2v-6.8c0-1.1,0.9-2,2-2h0.6c1.1,0,2,0.9,2,2V242.6z"/>
				</g>
			</g>
		</g>
		<g>
			<g>
				<g>
					<path class="st0" d="M157.1,242.6c0,1.1-0.9,2-2,2h-0.6c-1.1,0-2-0.9-2-2v-6.8c0-1.1,0.9-2,2-2h0.6c1.1,0,2,0.9,2,2V242.6z"/>
				</g>
			</g>
		</g>
		<g>
			<g>
				<g>
					<path class="st0" d="M171.3,242.6c0,1.1-0.9,2-2,2h-0.6c-1.1,0-2-0.9-2-2v-6.8c0-1.1,0.9-2,2-2h0.6c1.1,0,2,0.9,2,2V242.6z"/>
				</g>
			</g>
		</g>
		<g>
			<g>
				<g>
					<path class="st0" d="M185.5,242.6c0,1.1-0.9,2-2,2h-0.6c-1.1,0-2-0.9-2-2v-6.8c0-1.1,0.9-2,2-2h0.6c1.1,0,2,0.9,2,2V242.6z"/>
				</g>
			</g>
		</g>
		<g>
			<g>
				<g>
					<path class="st0" d="M199.7,242.6c0,1.1-0.9,2-2,2h-0.6c-1.1,0-2-0.9-2-2v-6.8c0-1.1,0.9-2,2-2h0.6c1.1,0,2,0.9,2,2V242.6z"/>
				</g>
			</g>
		</g>
		<g>
			<g>
				<g>
					<path class="st0" d="M214,242.6c0,1.1-0.9,2-2,2h-0.6c-1.1,0-2-0.9-2-2v-6.8c0-1.1,0.9-2,2-2h0.6c1.1,0,2,0.9,2,2V242.6z"/>
				</g>
			</g>
		</g>
		<g>
			<g>
				<g>
					<path class="st0" d="M228.2,242.6c0,1.1-0.9,2-2,2h-0.6c-1.1,0-2-0.9-2-2v-6.8c0-1.1,0.9-2,2-2h0.6c1.1,0,2,0.9,2,2V242.6z"/>
				</g>
			</g>
		</g>
	</g>
	<g>
		<path class="st0" d="M156.2,292.4c-76.4,0-138.6-62.2-138.6-138.6S79.8,15.2,156.2,15.2s138.6,62.2,138.6,138.6
			S232.6,292.4,156.2,292.4z M156.2,18.9c-74.4,0-134.9,60.5-134.9,134.9s60.5,134.9,134.9,134.9s134.9-60.5,134.9-134.9
			S230.6,18.9,156.2,18.9z"/>
	</g>
	<g>
		<g>
			<path class="st0" d="M156.2,306C72.3,306,4,237.7,4,153.8S72.3,1.6,156.2,1.6s152.2,68.3,152.2,152.2S240.2,306,156.2,306z
				 M156.2,5.2C74.3,5.2,7.7,71.9,7.7,153.8c0,81.9,66.6,148.5,148.5,148.5s148.5-66.6,148.5-148.5C304.8,71.9,238.1,5.2,156.2,5.2z
				"/>
		</g>
	</g>
</g>
</svg>
