<svg id="Capa_3" data-name="Capa 3" xmlns="http://www.w3.org/2000/svg" viewBox="0 0 305.48 305.48"><defs><style>.cls-1,.cls-2{fill:#fff;}.cls-1,.cls-3{stroke:#fff;stroke-miterlimit:10;}.cls-3{fill:none;}</style></defs><title>logo_Apolo-light</title><path class="cls-1" d="M227.11,89.27H85.23A11.17,11.17,0,0,1,74.07,78.12V74.3A11.18,11.18,0,0,1,85.23,63.14H227.11A11.17,11.17,0,0,1,238.27,74.3v3.82A11.16,11.16,0,0,1,227.11,89.27ZM85.23,67.76a6.54,6.54,0,0,0-6.54,6.54v3.82a6.54,6.54,0,0,0,6.54,6.53H227.11a6.54,6.54,0,0,0,6.54-6.53V74.3a6.54,6.54,0,0,0-6.54-6.54Z" transform="translate(-3.5 -1.05)"/><path class="cls-1" d="M227.11,246.93H85.23a11.18,11.18,0,0,1-11.16-11.16V232A11.17,11.17,0,0,1,85.23,220.8H227.11A11.16,11.16,0,0,1,238.27,232v3.82A11.17,11.17,0,0,1,227.11,246.93ZM85.23,225.41A6.55,6.55,0,0,0,78.69,232v3.82a6.54,6.54,0,0,0,6.54,6.54H227.11a6.54,6.54,0,0,0,6.54-6.54V232a6.55,6.55,0,0,0-6.54-6.54Z" transform="translate(-3.5 -1.05)"/><rect class="cls-2" x="174.77" y="72.85" width="57.69" height="4.62" rx="2" ry="2"/><rect class="cls-3" x="174.77" y="72.85" width="57.69" height="4.62" rx="2" ry="2"/><path class="cls-1" d="M123.52,99.45H89.24l-4-14.8h42.34ZM92.77,94.83H120l1.51-5.56H91.25Z" transform="translate(-3.5 -1.05)"/><path class="cls-1" d="M119.89,214.37H93.83L96.71,94.83H117Zm-21.33-4.62h16.6L112.5,99.45H101.22Z" transform="translate(-3.5 -1.05)"/><path class="cls-1" d="M175.17,99.45H140.89l-4-14.8H179.2Zm-30.75-4.62h27.22l1.51-5.56H142.9Z" transform="translate(-3.5 -1.05)"/><path class="cls-1" d="M171.54,214.37H145.48l2.88-119.54h20.3Zm-21.33-4.62h16.6l-2.66-110.3H152.87Z" transform="translate(-3.5 -1.05)"/><path class="cls-1" d="M225.66,99.45H191.38l-4-14.8h42.33Zm-30.75-4.62h27.23l1.51-5.56H193.4Z" transform="translate(-3.5 -1.05)"/><path class="cls-1" d="M222,214.37H196l2.89-119.54h20.29Zm-21.34-4.62h16.61l-2.66-110.3H203.36Z" transform="translate(-3.5 -1.05)"/><path class="cls-1" d="M229.94,225.41h-144V209.75h144ZM90.54,220.8H225.32v-6.43H90.54Z" transform="translate(-3.5 -1.05)"/><rect class="cls-2" x="77.89" y="232.81" width="4.62" height="10.76" rx="2" ry="2"/><rect class="cls-3" x="77.89" y="232.81" width="4.62" height="10.76" rx="2" ry="2"/><rect class="cls-2" x="92.1" y="232.81" width="4.62" height="10.76" rx="2" ry="2"/><rect class="cls-3" x="92.1" y="232.81" width="4.62" height="10.76" rx="2" ry="2"/><rect class="cls-2" x="106.32" y="232.81" width="4.62" height="10.76" rx="2" ry="2"/><rect class="cls-3" x="106.32" y="232.81" width="4.62" height="10.76" rx="2" ry="2"/><rect class="cls-2" x="120.54" y="232.81" width="4.62" height="10.76" rx="2" ry="2"/><rect class="cls-3" x="120.54" y="232.81" width="4.62" height="10.76" rx="2" ry="2"/><rect class="cls-2" x="134.76" y="232.81" width="4.62" height="10.76" rx="2" ry="2"/><rect class="cls-3" x="134.76" y="232.81" width="4.62" height="10.76" rx="2" ry="2"/><rect class="cls-2" x="148.98" y="232.81" width="4.62" height="10.76" rx="2" ry="2"/><rect class="cls-3" x="148.98" y="232.81" width="4.62" height="10.76" rx="2" ry="2"/><rect class="cls-2" x="163.19" y="232.81" width="4.62" height="10.76" rx="2" ry="2"/><rect class="cls-3" x="163.19" y="232.81" width="4.62" height="10.76" rx="2" ry="2"/><rect class="cls-2" x="177.41" y="232.81" width="4.62" height="10.76" rx="2" ry="2"/><rect class="cls-3" x="177.41" y="232.81" width="4.62" height="10.76" rx="2" ry="2"/><rect class="cls-2" x="191.63" y="232.81" width="4.62" height="10.76" rx="2" ry="2"/><rect class="cls-3" x="191.63" y="232.81" width="4.62" height="10.76" rx="2" ry="2"/><rect class="cls-2" x="205.85" y="232.81" width="4.62" height="10.76" rx="2" ry="2"/><rect class="cls-3" x="205.85" y="232.81" width="4.62" height="10.76" rx="2" ry="2"/><rect class="cls-2" x="220.07" y="232.81" width="4.62" height="10.76" rx="2" ry="2"/><rect class="cls-3" x="220.07" y="232.81" width="4.62" height="10.76" rx="2" ry="2"/><path class="cls-1" d="M156.24,292.36c-76.41,0-138.57-62.16-138.57-138.57S79.83,15.22,156.24,15.22,294.81,77.39,294.81,153.79,232.65,292.36,156.24,292.36Zm0-273.44c-74.37,0-134.88,60.5-134.88,134.87S81.87,288.67,156.24,288.67s134.87-60.51,134.87-134.88S230.61,18.92,156.24,18.92Z" transform="translate(-3.5 -1.05)"/><path class="cls-1" d="M156.24,306C72.29,306,4,237.74,4,153.79S72.29,1.55,156.24,1.55s152.24,68.3,152.24,152.24S240.19,306,156.24,306Zm0-300.79C74.33,5.25,7.69,71.89,7.69,153.79S74.33,302.34,156.24,302.34,304.79,235.7,304.79,153.79,238.15,5.25,156.24,5.25Z" transform="translate(-3.5 -1.05)"/></svg>